<?xml version="1.0" encoding="UTF-8"?><svg xmlns="http://www.w3.org/2000/svg" xmlns:xlink="http://www.w3.org/1999/xlink" viewBox="0 0 172.71 178.78"><defs><style>.j{fill:url(#f);}.k{fill:url(#g);}.l{fill:url(#i);}.m{fill:url(#h);}.n{fill:url(#d);}.o{fill:url(#e);}</style><linearGradient id="d" x1="164.19" y1="679.72" x2="164.19" y2="765.11" gradientTransform="translate(0 -638.11)" gradientUnits="userSpaceOnUse"><stop offset="0" stop-color="#003635"/><stop offset=".83" stop-color="#27f0ea"/></linearGradient><linearGradient id="e" x1="111.65" y1="644.46" x2="111.65" y2="768.79" xlink:href="#d"/><linearGradient id="f" x1="42.4" y1="646.81" x2="42.4" y2="749.71" xlink:href="#d"/><linearGradient id="g" x1="22.82" y1="646.81" x2="22.82" y2="783.08" gradientTransform="translate(0 -638.11)" gradientUnits="userSpaceOnUse"><stop offset="0" stop-color="#a0e880"/><stop offset=".58" stop-color="#3fe3c8"/></linearGradient><linearGradient id="h" x1="83.91" y1="638.11" x2="83.91" y2="816.89" xlink:href="#g"/><linearGradient id="i" x1="143.43" y1="660.3" x2="143.43" y2="802.25" xlink:href="#g"/></defs><g id="a"/><g id="b"><g id="c"><path class="n" d="M168.14,45.91s13.85,19.43-6.71,81.2c0,0,8.1-63.52-5.75-83.99l6.88-1.39,5.58,4.18Z"/><path class="o" d="M122.83,6.35s26.66,12.37-16.64,124.33c0,0,2.35-97.93-13.85-108.47l8.97-13.24,21.52-2.61Z"/><path class="j" d="M45.64,8.7s26.66-2.35-4.27,102.9c0,0,2.35-79.55-12.9-83.82l11.24-13.68,5.92-5.4Z"/><path class="k" d="M10.44,144.97s-27.18-56.72,6.19-114.84c0,0,13.77-15.25,29.01-21.43,0,0-38.6,36.68-35.2,136.27Z"/><path class="m" d="M65.68,6.35s-48.09,77.72,2.35,172.43c0,0,14.29-156.13,54.8-172.43,0,0-43.3-14.29-57.16,0Z"/><path class="l" d="M168.14,45.91s-14.81-27.18-26.23-23.35c0,0-43.83,27.27-10.98,141.58,0,0,9.06-132.09,37.2-118.23Z"/></g></g></svg>